<svg xmlns:rdf="http://www.w3.org/1999/02/22-rdf-syntax-ns#" xmlns="http://www.w3.org/2000/svg" xml:space="preserve" height="305.8" width="1743" viewBox="0 0 1743 306" version="1.1" xmlns:cc="http://creativecommons.org/ns#" xmlns:dc="http://purl.org/dc/elements/1.1/"><defs><clipPath id="clipPath3067" clipPathUnits="userSpaceOnUse"><path d="M0,480,640,480,640,0,0,0,0,480z"/></clipPath></defs><g transform="matrix(1.25,0,0,-1.25,785.78,509.74)"><g transform="matrix(0.96782,0,0,0.96782,-37.947,17.061)"><g style="font-size:32.2116px;" transform="scale(1,-1)"><path style="fill-rule:nonzero;fill:#ffffff;" d="m581.1-339.3c-2.72,0-5.05-0.95-6.99-2.85s-2.91-4.25-2.91-7.06c0-2.72,0.97-5.04,2.91-6.94,1.94-1.89,4.27-2.84,6.99-2.84,2.73,0,5.06,0.95,7,2.84,1.94,1.9,2.91,4.22,2.91,6.94,0,2.81-0.97,5.16-2.91,7.06s-4.27,2.85-7,2.85z"/><path style="fill-rule:nonzero;fill:#ffffff;" d="m629.3-347.6c1.9,0.1,4.06-0.25,6.5-0.99,2.43-0.74,4.97-2.44,7.62-5.08l0.12,0.13c1.24,1.56,2.25,3.13,3.04,4.7,0.78,1.57,1.46,3.18,2.04,4.83-2.64,2.15-5.59,3.8-8.86,4.96-3.26,1.15-6.75,1.73-10.46,1.73-4.38,0-8.47-0.82-12.26-2.48-3.8-1.65-7.13-3.9-9.98-6.74-2.84-2.85-5.1-6.18-6.75-9.98-1.65-3.79-2.47-7.88-2.47-12.26,0-4.37,0.82-8.46,2.47-12.26s3.91-7.12,6.75-9.97c2.85-2.85,6.18-5.1,9.98-6.75,3.79-1.65,7.88-2.48,12.26-2.48,3.71,0,7.2,0.58,10.46,1.73,3.27,1.16,6.22,2.81,8.86,4.96-0.58,1.65-1.26,3.26-2.04,4.83-0.79,1.57-1.8,3.14-3.04,4.71l-0.12,0.12c-2.65-2.64-5.19-4.34-7.62-5.08-2.44-0.74-4.6-1.07-6.5-0.99-2.31,0.1-4.46,0.68-6.44,1.8-1.99,1.11-3.72,2.62-5.21,4.52-1.48,1.9-2.66,4.11-3.53,6.63-0.86,2.51-1.3,5.26-1.3,8.23,0,2.89,0.44,5.62,1.3,8.18,0.87,2.56,2.05,4.79,3.53,6.68,1.49,1.9,3.22,3.41,5.21,4.53,1.98,1.11,4.13,1.71,6.44,1.79z"/><path style="fill-rule:nonzero;fill:#ffffff;" d="m685.7-400.3c4.3,0,8.36,0.83,12.2,2.48,3.85,1.65,7.19,3.9,10.04,6.75s5.1,6.2,6.75,10.04,2.47,7.9,2.47,12.2c0,4.37-0.82,8.46-2.47,12.26s-3.9,7.12-6.75,9.97-6.19,5.1-10.04,6.75c-3.84,1.65-7.9,2.48-12.2,2.48-4.37,0-8.46-0.83-12.26-2.48s-7.12-3.9-9.97-6.75-5.1-6.17-6.75-9.97-2.48-7.89-2.48-12.26c0-4.3,0.83-8.36,2.48-12.2s3.9-7.19,6.75-10.04,6.17-5.1,9.97-6.75,7.89-2.48,12.26-2.48zm0,52.65c2.23,0,4.36-0.56,6.38-1.67,2.03-1.12,3.78-2.63,5.27-4.53,1.48-1.89,2.66-4.14,3.53-6.75,0.86-2.6,1.3-5.34,1.3-8.23s-0.44-5.62-1.3-8.18c-0.87-2.56-2.05-4.81-3.53-6.75-1.49-1.94-3.24-3.47-5.27-4.58-2.02-1.12-4.15-1.67-6.38-1.67-2.31,0-4.45,0.55-6.44,1.67-1.98,1.11-3.71,2.64-5.2,4.58s-2.66,4.19-3.53,6.75-1.3,5.29-1.3,8.18,0.43,5.63,1.3,8.23c0.87,2.61,2.04,4.86,3.53,6.75,1.49,1.9,3.22,3.41,5.2,4.53,1.99,1.11,4.13,1.67,6.44,1.67z"/><path style="fill-rule:nonzero;fill:#ffffff;" d="m753.9-400.2c4.3,0,8.28,0.83,11.95,2.48,3.68,1.65,6.84,3.9,9.48,6.75s4.71,6.17,6.19,9.97c1.49,3.8,2.23,7.89,2.23,12.26v25.76c-2.14,1.16-4.44,2.07-6.87,2.73-2.44,0.66-5.14,0.99-8.12,0.99v-29.48c0-2.97-0.35-5.74-1.05-8.3s-1.69-4.79-2.97-6.69c-1.28-1.89-2.85-3.4-4.71-4.52-1.85-1.11-3.9-1.67-6.13-1.67-2.31,0-4.4,0.56-6.25,1.67-1.86,1.12-3.43,2.63-4.71,4.52-1.28,1.9-2.27,4.13-2.97,6.69s-1.06,5.33-1.06,8.3v25.76c-2.06,1.16-4.31,2.07-6.75,2.73-2.43,0.66-5.18,0.99-8.23,0.99v-29.48c0-4.37,0.74-8.46,2.23-12.26,1.48-3.8,3.55-7.12,6.19-9.97s5.8-5.1,9.48-6.75c3.67-1.65,7.69-2.48,12.07-2.48zm44.72,0c4.37,0,8.4,0.83,12.07,2.48,3.68,1.65,6.83,3.9,9.48,6.75,2.64,2.85,4.7,6.17,6.19,9.97s2.23,7.89,2.23,12.26v25.76c-2.15,1.16-4.44,2.07-6.87,2.73-2.44,0.66-5.19,0.99-8.24,0.99v-29.48c0-2.97-0.35-5.74-1.05-8.3-0.71-2.56-1.7-4.79-2.98-6.69-1.28-1.89-2.83-3.4-4.64-4.52-1.82-1.11-3.88-1.67-6.19-1.67-3.06,0-5.72,0.99-7.99,2.97-2.28,1.99-3.99,4.59-5.14,7.81-1.49-4.88-4.01-9.09-7.56-12.64,2.64-2.64,5.7-4.7,9.17-6.19,3.46-1.49,7.3-2.23,11.52-2.23z"/></g><g transform="matrix(2.6843,0,0,2.6843,-768.23,-385.21)"><g clip-path="url(#clipPath3067)"><g transform="translate(322.15,273.62)"><path style="fill-rule:nonzero;fill:#ff9b01;" d="M0,0c10.87-3.23,19.3-10.17,29.5-16.78,7.38,7.637,16.93,16.28,25.17,21.9,13.57,9.092,29.89,18.08,43.97,14.27-14.37-1.18-27.73-15.37-38.32-27.74-10.54-12.5-20-28.32-27.16-43.96l-13.78,16.96c-7.03,7.74-14.76,14.78-22.71,20.32-12.29,8.385-25.41,14.51-40.42,12.33,14.01,9.446,29.09,6.878,43.75,2.686"/></g><g transform="translate(160.96,248.96)"><path style="fill-rule:nonzero;fill:#ffffff;" d="m0,0c-1.078,2.484-2.551,4.655-4.415,6.518-1.86,1.862-4.047,3.336-6.558,4.415-2.51,1.08-5.195,1.62-8.058,1.62-2.753,0-5.344-0.513-7.774-1.538-2.428-1.026-4.56-2.433-6.397-4.212l4.778-4.86c0.864,0.811,1.781,1.514,2.753,2.107,0.865,0.539,1.862,0.985,2.997,1.336,1.133,0.351,2.349,0.471,3.643,0.364,1.512,0,2.916-0.35,4.21-1.053,1.297-0.699,2.432-1.658,3.403-2.873,0.971-1.216,1.742-2.634,2.307-4.252,0.568-1.621,0.852-3.373,0.852-5.262,0-1.998-0.256-3.85-0.772-5.548-0.511-1.702-1.226-3.158-2.144-4.374-0.917-1.217-2.011-2.159-3.28-2.834-1.268-0.674-2.686-1.012-4.252-1.012-1.997,0-3.549,0.283-4.655,0.85-1.106,0.565-1.944,1.227-2.511,1.983-0.568,0.757-0.918,1.497-1.053,2.229-0.133,0.728-0.202,1.228-0.202,1.496,0,0.324,0.135,0.931,0.405,1.82,0.27,0.892,0.972,1.743,2.105,2.554,1.133,0.809,2.848,1.376,5.143,1.7s5.466,0.081,9.514-0.729v0.975c0,2.05-0.377,4.046-1.133,5.991-3.077,0.594-6.086,0.796-9.029,0.607-2.941-0.189-5.562-0.729-7.856-1.622-2.292-0.89-4.171-2.157-5.627-3.805-1.458-1.646-2.24-3.656-2.349-6.032-0.108-1.997,0.284-3.914,1.175-5.75s2.105-3.455,3.644-4.859c1.537-1.404,3.36-2.522,5.465-3.359,2.106-0.838,4.321-1.258,6.64-1.258,2.863,0,5.548,0.541,8.058,1.621,2.511,1.079,4.698,2.551,6.558,4.412,1.864,1.864,4.245-6.826,5.324-4.32,1.08,2.514,0.711,16.08,0.711,18.94,0.027,2.864-0.512,5.538-1.593,8.02"/></g><g transform="translate(87.391,262.04)"><path style="fill-rule:nonzero;fill:#ffffff;" d="m0,0-18.7,0,0,12.89c0,3.345,2.942,6.149,6.547,6.149h24.45c2.562,0,4.933,2.259,4.933,4.698,0,2.623-2.371,4.703-5.998,4.703h-24.45c-7.946,0-15.34-6.961-15.34-17.94v-48.7c0-0.233,2.182-2.314,4.934-2.314,2.559,0,4.93,2.081,4.93,4.701v26.51h18.7c2.75,0,4.933,1.989,4.933,4.701,0,2.429-2.183,4.599-4.933,4.599"/></g><g transform="translate(116,260.8)"><path style="fill-rule:nonzero;fill:#ffffff;" d="m0,0c-2.862,0-5.535-0.543-8.017-1.622-2.483-1.079-4.655-2.55-6.518-4.413-1.863-1.862-3.334-4.049-4.414-6.559-1.081-2.51-1.619-5.172-1.619-7.976v-18.06c1.998,0,3.791,0.215,5.385,0.647,1.591,0.432,3.09,1.027,4.494,1.784v15.63c0,1.889,0.283,3.671,0.852,5.343,0.566,1.674,1.335,3.131,2.308,4.374,0.97,1.242,2.104,2.227,3.401,2.956,1.294,0.729,2.672,1.092,4.128,1.092,1.405,0.108,2.806-0.108,4.212-0.646l2.754,6.154c-1.079,0.438-2.201,0.761-3.36,0.979-1.162,0.214-2.362,0.325-3.605,0.325"/></g><g transform="translate(202.57,255.9)"><path style="fill-rule:nonzero;fill:#ffffff;" d="m0,0c-1.729,1.861-3.794,3.333-6.195,4.415-2.404,1.076-5.036,1.618-7.896,1.618-2.862,0-5.481-0.542-7.856-1.618-2.375-1.082-4.428-2.554-6.154-4.415-1.729-1.862-3.077-4.051-4.05-6.56-0.971-2.511-1.456-5.17-1.456-7.975v-19.36c1.944,0,3.71,0.229,5.304,0.688,1.59,0.459,3.089,1.064,4.493,1.82v16.85c0,1.889,0.231,3.669,0.688,5.346,0.459,1.671,1.107,3.142,1.944,4.412,0.838,1.267,1.863,2.266,3.079,2.994,1.214,0.728,2.55,1.095,4.008,1.095,1.511,0,2.86-0.367,4.047-1.095,1.188-0.728,2.201-1.727,3.039-2.994,0.837-1.27,1.484-2.741,1.942-4.412,0.459-1.677,0.688-3.457,0.688-5.346v-19.36c1.999,0,3.793,0.229,5.387,0.688,1.591,0.459,3.091,1.064,4.494,1.82v16.85c0,2.805-0.486,5.464-1.457,7.975-0.967,2.514-2.316,4.703-4.043,6.565"/></g><g transform="translate(225.48,251)"><path style="fill-rule:nonzero;fill:#ffffff;" d="m0,0c0.97,1.242,2.106,2.229,3.4,2.954,1.296,0.732,2.701,1.124,4.213,1.176,1.239,0.055,2.658-0.16,4.25-0.65,1.592-0.484,3.253-1.589,4.98-3.318l0.08,0.08c0.81,1.026,1.47,2.053,1.986,3.081,0.511,1.025,0.955,2.075,1.337,3.156-1.731,1.403-3.661,2.485-5.792,3.24-2.133,0.756-4.413,1.134-6.842,1.134-2.864,0-5.536-0.54-8.018-1.621-2.484-1.081-4.656-2.552-6.52-4.414-1.861-1.864-3.333-4.035-4.411-6.516-1.081-2.486-1.619-5.157-1.619-8.018,0-2.863,0.538-5.535,1.619-8.016,1.078-2.486,2.55-4.659,4.411-6.52,1.864-1.864,4.036-3.334,6.521-4.415,2.482-1.08,5.154-1.62,8.018-1.62,2.429,0,4.709,0.379,6.842,1.135,2.131,0.756,4.061,1.833,5.792,3.241-0.382,1.078-0.826,2.131-1.337,3.156-0.516,1.024-1.176,2.052-1.986,3.077l-0.08,0.08c-1.727-1.729-3.388-2.835-4.98-3.321-1.592-0.484-3.011-0.702-4.25-0.647-1.512,0.05-2.917,0.445-4.213,1.173-1.294,0.729-2.43,1.714-3.4,2.957-0.971,1.241-1.742,2.7-2.309,4.372-0.566,1.673-0.849,3.455-0.849,5.346,0,1.941,0.283,3.737,0.849,5.386,0.57,1.65,1.341,3.098,2.312,4.338"/></g><g transform="translate(282.13,257.31)"><path style="fill-rule:nonzero;fill:#ffffff;" d="m0,0c-1.54,1.402-3.359,2.522-5.465,3.36-2.105,0.836-4.318,1.256-6.641,1.256-2.862,0-5.545-0.542-8.057-1.618-2.51-1.082-4.698-2.554-6.562-4.415-1.86-1.862-3.334-4.051-4.41-6.56-1.081-2.511-1.622-5.196-1.622-8.056,0-2.863,0.541-5.535,1.622-8.017,1.076-2.485,2.55-4.658,4.41-6.519,1.864-1.865,4.052-3.334,6.562-4.415,2.512-1.08,5.195-1.62,8.057-1.62,2.753,0,5.344,0.514,7.775,1.539,2.429,1.025,4.559,2.43,6.396,4.211l-4.778,4.859c-0.864-0.809-1.781-1.513-2.752-2.107-0.864-0.54-1.864-0.985-2.996-1.335-1.134-0.351-2.349-0.474-3.645-0.363-1.513,0-2.917,0.349-4.21,1.052-1.295,0.699-2.43,1.659-3.401,2.875-0.974,1.216-1.743,2.632-2.309,4.252-0.568,1.618-0.85,3.373-0.85,5.263,0,1.996,0.254,3.847,0.768,5.548,0.513,1.7,1.227,3.159,2.149,4.372,0.915,1.214,2.01,2.159,3.279,2.834,1.266,0.673,2.683,1.011,4.251,1.011,1.997,0,3.55-0.284,4.656-0.849,1.106-0.566,1.942-1.228,2.508-1.986,0.571-0.755,0.921-1.497,1.054-2.223,0.135-0.731,0.206-1.232,0.206-1.499,0-0.326-0.138-0.931-0.409-1.822-0.268-0.894-0.971-1.742-2.103-2.552-1.134-0.81-2.848-1.377-5.142-1.699-2.298-0.324-5.466-0.08-9.518,0.727v-0.972c0-2.052,0.378-4.05,1.134-5.992,3.078-0.597,6.086-0.798,9.031-0.609,2.94,0.19,5.56,0.731,7.856,1.621,2.292,0.892,4.17,2.159,5.627,3.807,1.458,1.645,2.241,3.657,2.349,6.035,0.107,1.994-0.286,3.912-1.174,5.748-0.885,1.828-2.101,3.447-3.638,4.852"/></g><path style="fill-rule:nonzero;fill:#ffffff;" d="m297.3,236.5,23.41,0,0,7.54-23.41,0,0-7.54z"/><g transform="translate(410.27,235.98)"><path style="fill-rule:nonzero;fill:#ffffff;" d="M0,0c-0.568-1.701-1.335-3.173-2.308-4.413-0.973-1.243-2.122-2.229-3.444-2.957-1.321-0.729-2.711-1.092-4.168-1.092-1.509,0-2.914,0.363-4.213,1.092-1.295,0.728-2.429,1.714-3.4,2.957-0.97,1.24-1.741,2.712-2.305,4.413-0.568,1.701-0.85,3.494-0.85,5.386,0,1.888,0.282,3.669,0.85,5.345,0.564,1.672,1.335,3.143,2.305,4.413,0.971,1.267,2.105,2.266,3.4,2.994,1.299,0.728,2.704,1.094,4.213,1.094,1.457,0,2.847-0.366,4.168-1.094,1.322-0.728,2.471-1.727,3.444-2.994,0.98-1.27,1.747-2.74,2.315-4.41,0.569-1.675,0.85-3.456,0.85-5.344,0-1.892-0.281-3.685-0.85-5.386m4.615,19.92c-1.859,1.861-4.046,3.333-6.559,4.415-2.508,1.076-5.168,1.618-7.976,1.618-2.86,0-5.537-0.542-8.016-1.618-2.486-1.082-4.659-2.554-6.517-4.415-1.863-1.862-3.336-4.051-4.414-6.56-1.082-2.511-1.621-5.171-1.621-7.975,0-2.864,0.539-5.535,1.621-8.018,1.078-2.484,2.551-4.657,4.414-6.518,1.858-1.863,4.031-3.334,6.517-4.414,2.479-1.079,5.156-1.622,8.016-1.622,2.808,0,5.468,0.543,7.976,1.622,2.513,1.08,4.7,2.551,6.559,4.414,1.865,1.861,3.333,4.034,4.411,6.518,1.081,2.483,1.622,5.154,1.622,8.018,0,2.804-0.541,5.464-1.622,7.975-1.078,2.509-2.546,4.698-4.411,6.56"/></g><g transform="translate(444.97,220.87)"><path style="fill-rule:nonzero;fill:#ffffff;" d="M0,0c1.513,0,2.81,0.162,3.889,0.485,1.082,0.326,2.295,0.784,3.641,1.377v10.37c-1.023-1.68-2.104-3.011-3.236-4.011-1.134-0.999-2.566-1.496-4.294-1.496-1.514,0-2.858,0.364-4.047,1.091-1.187,0.729-2.201,1.714-3.038,2.956-0.838,1.242-1.486,2.712-1.944,4.415-0.459,1.701-0.689,3.494-0.689,5.385v19.36c-1.994,0-3.793-0.232-5.382-0.689-1.595-0.459-3.093-1.069-4.499-1.822v-16.84c0-2.863,0.492-5.535,1.463-8.017,0.967-2.485,2.318-4.657,4.05-6.519,1.73-1.86,3.79-3.331,6.194-4.411,2.405-1.08,5.038-1.62,7.896-1.62"/></g><g transform="translate(454.69,258.29)"><path style="fill-rule:nonzero;fill:#ffffff;" d="m0,0,0-38.14c0-1.892-0.297-3.659-0.891-5.307-0.593-1.645-1.378-3.088-2.35-4.33-0.97-1.242-2.104-2.214-3.398-2.917-1.299-0.701-2.674-1.053-4.131-1.053-1.241,0-2.659,0.23-4.251,0.69-1.594,0.458-3.279,1.553-5.065,3.28l-0.08-0.08c-1.456-1.945-2.535-4.021-3.236-6.236,1.724-1.403,3.654-2.485,5.787-3.24,2.134-0.755,4.417-1.133,6.844-1.133,2.809,0,5.465,0.539,7.976,1.621,2.509,1.079,4.7,2.55,6.56,4.411,1.862,1.86,3.333,4.035,4.413,6.519,1.078,2.483,1.617,5.156,1.617,8.016v40.41c-1.995,0.001-3.775-0.23-5.34-0.687-1.572-0.46-3.052-1.07-4.456-1.823"/></g><g transform="translate(548.1,255.65)"><path style="fill-rule:nonzero;fill:#ffffff;" d="m0,0c-1.757,1.861-3.834,3.333-6.237,4.413s-5.007,1.621-7.816,1.621c-2.858,0-5.478-0.541-7.852-1.621-2.379-1.08-4.43-2.552-6.154-4.413-1.73-1.863-3.08-4.05-4.051-6.56-0.971-2.509-1.459-5.169-1.459-7.978,0-2.859,0.488-5.533,1.459-8.014,0.971-2.484,2.321-4.658,4.051-6.521,1.724-1.862,3.775-3.333,6.154-4.412,2.374-1.08,4.994-1.62,7.852-1.62,1.567,0,2.89,0.161,3.972,0.486,1.08,0.323,2.265,0.781,3.559,1.377v10.37c-0.968-1.675-2.036-3.013-3.197-4.01-1.163-1-2.607-1.5-4.334-1.5-1.454,0-2.792,0.368-4.006,1.095-1.216,0.728-2.242,1.714-3.078,2.956-0.839,1.242-1.484,2.714-1.943,4.414-0.46,1.699-0.69,3.496-0.69,5.383,0,1.892,0.23,3.673,0.69,5.348,0.459,1.671,1.104,3.142,1.943,4.412,0.836,1.268,1.862,2.268,3.078,2.996,1.214,0.728,2.552,1.094,4.006,1.094,1.458,0,2.782-0.353,3.972-1.054,1.185-0.701,2.212-1.673,3.076-2.915,0.86-1.24,1.526-2.7,1.983-4.373,0.458-1.675,0.687-3.454,0.687-5.343v-21.14c0-1.891-0.298-3.672-0.888-5.347-0.593-1.671-1.38-3.128-2.349-4.371-0.973-1.243-2.105-2.217-3.403-2.916-1.296-0.703-2.672-1.054-4.128-1.054-1.242-0.05-2.659,0.161-4.252,0.646-1.591,0.488-3.253,1.594-4.981,3.324l-0.08-0.08c-0.812-1.026-1.484-2.05-2.025-3.078-0.541-1.024-0.968-2.076-1.297-3.158,1.727-1.403,3.66-2.482,5.793-3.239,2.13-0.755,4.415-1.134,6.843-1.134,2.859,0,5.532,0.54,8.016,1.619,2.484,1.081,4.657,2.552,6.518,4.415,1.862,1.862,3.332,4.035,4.414,6.519,1.081,2.483,1.62,5.156,1.62,8.017l0.079,20.81c0,2.809-0.481,5.469-1.457,7.978-0.966,2.502-2.329,4.689-4.08,6.552"/></g><g transform="translate(584.34,243.79)"><path style="fill-rule:nonzero;fill:#ffffff;" d="m0,0c-1.133-0.81-2.849-1.377-5.141-1.698-2.298-0.324-5.467-0.085-9.515,0.726v-0.971c0-2.052,0.379-4.05,1.134-5.993,3.077-0.596,6.083-0.797,9.03-0.609,2.941,0.191,5.557,0.732,7.852,1.621,2.294,0.893,4.172,2.159,5.63,3.808,1.454,1.644,2.238,3.656,2.347,6.034,0.107,1.994-0.28,3.912-1.175,5.748-0.891,1.834-2.105,3.453-3.641,4.858-1.541,1.403-3.36,2.522-5.469,3.36-2.105,0.837-4.318,1.256-6.642,1.256-2.857,0-5.544-0.542-8.056-1.618-2.508-1.082-4.698-2.553-6.558-4.415-1.862-1.862-3.334-4.05-4.413-6.559-1.079-2.512-1.619-5.196-1.619-8.057,0-2.863,0.54-5.535,1.619-8.016,1.079-2.486,2.551-4.659,4.413-6.52,1.86-1.864,4.05-3.334,6.558-4.415,2.512-1.08,5.199-1.62,8.056-1.62,2.757,0,5.349,0.515,7.779,1.539,2.426,1.025,4.56,2.431,6.395,4.212l-4.777,4.858c-0.867-0.808-1.782-1.512-2.755-2.106-0.863-0.54-1.863-0.986-2.993-1.335-1.134-0.352-2.352-0.475-3.649-0.363-1.512,0-2.911,0.348-4.21,1.051-1.294,0.7-2.429,1.66-3.4,2.875-0.975,1.216-1.742,2.632-2.307,4.252-0.566,1.618-0.852,3.373-0.852,5.263,0,1.996,0.258,3.848,0.771,5.549,0.514,1.699,1.228,3.158,2.147,4.371,0.915,1.215,2.009,2.159,3.279,2.834,1.266,0.674,2.686,1.012,4.25,1.012,1.997,0,3.551-0.285,4.656-0.85,1.106-0.553,1.944-1.216,2.509-1.973,0.568-0.755,0.918-1.497,1.054-2.224,0.132-0.73,0.202-1.231,0.202-1.499,0-0.325-0.137-0.931-0.405-1.821-0.269-0.895-0.974-1.742-2.106-2.553"/></g><g transform="translate(507.58,248.04)"><path style="fill-rule:nonzero;fill:#ffffff;" d="m0,0c-1.079,2.483-2.551,4.655-4.414,6.518-1.861,1.862-4.047,3.336-6.559,4.415-2.509,1.081-5.194,1.62-8.058,1.62-2.751,0-5.345-0.513-7.774-1.538-2.427-1.026-4.56-2.434-6.395-4.213l4.776-4.859c0.864,0.81,1.782,1.513,2.754,2.107,0.863,0.539,1.862,0.984,2.996,1.336,1.135,0.351,2.35,0.472,3.643,0.364,1.511,0,2.916-0.351,4.212-1.053,1.297-0.7,2.429-1.659,3.4-2.874,0.972-1.216,1.743-2.633,2.31-4.252,0.566-1.62,0.85-3.374,0.85-5.262,0-1.998-0.255-3.849-0.77-5.549-0.514-1.7-1.228-3.156-2.146-4.373-0.918-1.216-2.01-2.158-3.279-2.835-1.268-0.672-2.688-1.011-4.252-1.011-1.997,0-3.549,0.283-4.656,0.851-1.107,0.565-1.944,1.227-2.511,1.983-0.568,0.758-0.916,1.498-1.055,2.229-0.132,0.728-0.198,1.227-0.198,1.496,0,0.324,0.135,0.929,0.401,1.82,0.271,0.892,0.974,1.742,2.107,2.554,1.134,0.809,2.849,1.376,5.144,1.7,2.295,0.322,5.465,0.081,9.513-0.729v0.974c0,2.051-0.376,4.047-1.135,5.992-3.076,0.592-6.083,0.797-9.026,0.606-2.942-0.188-5.562-0.729-7.856-1.62-2.293-0.89-4.17-2.16-5.626-3.806-1.459-1.647-2.242-3.656-2.35-6.031-0.108-1.998,0.283-3.915,1.175-5.75,0.891-1.838,2.104-3.456,3.644-4.86,1.537-1.404,3.361-2.523,5.465-3.36,2.105-0.838,4.321-1.258,6.639-1.258,2.864,0,5.549,0.542,8.058,1.621,2.512,1.081,4.698,2.552,6.559,4.414,1.863,1.862,4.244-6.827,5.323-4.321,1.081,2.514,0.71,16.08,0.71,18.94,0.027,2.855-0.51,5.529-1.592,8.01"/></g></g></g></g></g></svg>